<svg width="100%" height="100%" xmlns="http://www.w3.org/2000/svg" viewBox="0 0 400 400">
  <path fill="currentColor" d="M313.9,122.5h-133.3c-3.1-11.3-13.4-19.6-25.6-19.6s-22.6,8.3-25.6,19.6h-38.8c-3.9,0-7,3.1-7,7s3.1,7,7,7h38.8c3.1,11.3,13.4,19.6,25.6,19.6s22.6-8.3,25.6-19.6h133.3c3.9,0,7-3.1,7-7s-3.1-7-7-7ZM154.9,142.1c-6.9,0-12.6-5.6-12.6-12.6s5.6-12.6,12.6-12.6,12.6,5.6,12.6,12.6-5.6,12.6-12.6,12.6Z"/>
  <path fill="currentColor" d="M313.9,186.2h-26.5c-3.1-11.3-13.4-19.6-25.6-19.6s-22.6,8.3-25.6,19.6H90.5c-3.9,0-7,3.1-7,7s3.1,7,7,7h145.6c3.1,11.3,13.4,19.6,25.6,19.6s22.6-8.3,25.6-19.6h26.5c3.9,0,7-3.1,7-7s-3.1-7-7-7ZM261.8,205.8c-6.9,0-12.6-5.6-12.6-12.6s5.6-12.6,12.6-12.6,12.6,5.6,12.6,12.6-5.6,12.6-12.6,12.6Z"/>
  <path fill="currentColor" d="M313.9,249.9h-96.3c-3.1-11.3-13.4-19.6-25.6-19.6s-22.6,8.3-25.6,19.6h-75.8c-3.9,0-7,3.1-7,7s3.1,7,7,7h75.8c3.1,11.3,13.4,19.6,25.6,19.6s22.6-8.3,25.6-19.6h96.3c3.9,0,7-3.1,7-7s-3.1-7-7-7ZM192,269.4c-6.9,0-12.6-5.6-12.6-12.6s5.6-12.6,12.6-12.6,12.6,5.6,12.6,12.6-5.6,12.6-12.6,12.6Z"/>
</svg>
