<svg width="100%" height="100%" xmlns="http://www.w3.org/2000/svg" viewBox="280 140 1400 850">
  <path class="st0" d="M1305.9,215.6c-8.5-19.4-22.1-35-39.1-45.1-20-11.8-42.6-11.8-83.7-11.8h-397.8c-41.1,0-63.8,0-83.7,11.8-17,10.1-30.6,25.7-39.1,45.1-9.4,21.4-9.4,45.3-9.4,93.1v462.5c0,47.8,0,71.7,9.4,93,8.5,19.5,22,35.1,39.1,45.2,20,11.8,42.5,11.8,83.6,11.8h398c41,0,63.7,0,83.6-11.8,17-10.1,30.6-25.7,39.1-45.2,9.3-21.3,9.3-45.2,9.3-92.9v-462.8c0-47.7,0-71.6-9.3-93h0ZM1270.4,771.4c0,40.1,0,62.2-5.6,74.9-4.7,10.6-12.1,19.4-20.9,24.6-9.3,5.5-27.6,5.5-60.7,5.5h-398c-33.1,0-51.4,0-60.8-5.5-8.8-5.2-16.2-13.9-20.8-24.6-5.6-12.8-5.6-34.9-5.6-75v-462.5c0-40.2,0-62.3,5.6-75.1,4.6-10.6,12.1-19.3,20.8-24.5,9.4-5.6,27.7-5.6,60.9-5.6h397.8c33.2,0,51.5,0,60.8,5.6,8.8,5.2,16.3,14,20.9,24.5,5.6,12.8,5.6,34.8,5.6,75v462.8h0Z" fill="currentColor"/>
  <path class="st0" d="M1099.9,477.7h-231.5c-12.4,0-22.4,10-22.4,22.4s10,22.4,22.4,22.4h231.5c12.4,0,22.4-10,22.4-22.4s-10.1-22.4-22.4-22.4h0Z" fill="currentColor"/>
  <path class="st0" d="M1099.9,358.1h-231.5c-12.4,0-22.4,10-22.4,22.4s10,22.4,22.4,22.4h231.5c12.4,0,22.4-10,22.4-22.4s-10.1-22.4-22.4-22.4Z" fill="currentColor"/>
  <path class="st0" d="M1099.9,604.6h-231.5c-12.4,0-22.4,10-22.4,22.4s10,22.4,22.4,22.4h231.5c12.4,0,22.4-10,22.4-22.4s-10.1-22.4-22.4-22.4Z" fill="currentColor"/>
  <path class="st0" d="M1000,770.9c-2.1-2.1-4.5-3.6-7.2-4.8-5.4-2.1-12-2.1-17.3,0-2.7,1.2-5.1,2.7-7.2,4.8-2.1,2.1-3.6,4.8-4.8,7.5s-1.8,5.4-1.8,8.4c0,6,2.4,11.7,6.6,15.9,2.1,2.1,4.5,3.9,7.2,5.1,2.7.9,5.7,1.5,8.7,1.5s6-.6,8.7-1.5c2.7-1.2,5.1-3,7.2-5.1,2.1-2.1,3.9-4.5,4.8-7.2,1.2-2.7,1.8-5.7,1.8-8.7s-.6-5.7-1.8-8.4c-.9-2.7-2.7-5.4-4.8-7.5h0Z" fill="currentColor"/>
</svg>
