<svg xmlns="http://www.w3.org/2000/svg" width="100%" height="100%" viewBox="0 0 1245.9 1080">
  <path d="M1092.8,222.1c-36.1-43.9-84.5-68.1-136.3-68.1H289.4c-51.8,0-100.2,24.2-136.3,68.1-34.9,42.5-54.2,98.7-54.2,158.2v392.7c0,.1,0,.3,0,.4.6,37.9,10,70.3,27.9,96.4,16.9,24.7,40.8,42.2,69,50.6,12.3,3.6,25.2,5.5,38.3,5.5,19.7,0,39.8-4.1,59.1-12.1,33.2-13.9,62.6-38.7,84.9-71.7l116.8-172.6h256.1l116.8,172.6c22.4,33.1,51.7,57.9,84.9,71.7,32.1,13.4,66.7,15.8,97.3,6.7,28.2-8.4,52.1-25.9,69-50.6,17.9-26,27.2-58.5,27.9-96.4,0-.1,0-.3,0-.4v-392.7c0-59.5-19.2-115.7-54.2-158.2ZM1096.3,772.8c-.9,51.8-23,87.9-60.7,99.1-7.9,2.3-16,3.5-24.2,3.5-36.8,0-75.4-22.8-101.8-61.7,0,0,0,0,0,0l-124.3-183.7c-4.7-7-12.6-11.1-21-11.1h-283c-8.4,0-16.2,4.2-21,11.1l-124.3,183.7c-32.2,47.6-82.8,71.1-125.9,58.2-37.6-11.2-59.8-47.3-60.7-99.1v-392.5c0-96.9,62.8-175.7,139.9-175.7h667c77.1,0,139.9,78.8,139.9,175.7v392.5Z"/>
  <path d="M919.5,438.7c-52.3,0-94.6,41.8-94.6,93.5s42.4,93.5,94.6,93.5,94.6-41.8,94.6-93.5-42.3-93.5-94.6-93.5Z"/>
  <path d="M363.6,391.4c26.7,0,48.3-21.3,48.3-47.7s-21.6-47.7-48.3-47.7-48.3,21.3-48.3,47.7,21.7,47.7,48.3,47.7Z"/>
  <path d="M267.1,390.3c-26.7,0-48.3,21.3-48.3,47.7s21.7,47.7,48.3,47.7,48.3-21.3,48.3-47.7-21.6-47.7-48.3-47.7Z"/>
  <path d="M460.1,390.3c-26.7,0-48.3,21.3-48.3,47.7s21.7,47.7,48.3,47.7,48.3-21.3,48.3-47.7-21.6-47.7-48.3-47.7Z"/>
  <path d="M363.6,484.5c-26.7,0-48.3,21.3-48.3,47.7s21.7,47.7,48.3,47.7,48.3-21.3,48.3-47.7-21.6-47.7-48.3-47.7Z"/>
</svg>
