<svg width="77" height="42" viewBox="0 0 77 42" fill="none" xmlns="http://www.w3.org/2000/svg">
<g filter="url(#filter0_d_2863_21926)">
<rect width="75" height="40" rx="20" fill="#FCFAF7"/>
<rect x="0.5" y="0.5" width="74" height="39" rx="19.5" stroke="#1A1A1A"/>
</g>
<rect x="5" y="4" width="32" height="32" rx="16" fill="#1A1A1A"/>
<path d="M24.625 19.75C24.625 21.8901 22.8901 23.625 20.75 23.625C18.6099 23.625 16.875 21.8901 16.875 19.75C16.875 17.6099 18.6099 15.875 20.75 15.875C22.8901 15.875 24.625 17.6099 24.625 19.75Z" stroke="white" stroke-width="1.5"/>
<path d="M21.4241 11.5558C21.4241 11.9318 21.1193 12.2366 20.7433 12.2366C20.3673 12.2366 20.0625 11.9318 20.0625 11.5558C20.0625 11.1798 20.3673 10.875 20.7433 10.875C21.1193 10.875 21.4241 11.1798 21.4241 11.5558Z" fill="white" stroke="white" stroke-width="0.75"/>
<path d="M21.4241 27.944C21.4241 28.32 21.1193 28.6248 20.7433 28.6248C20.3673 28.6248 20.0625 28.32 20.0625 27.944C20.0625 27.568 20.3673 27.2632 20.7433 27.2632C21.1193 27.2632 21.4241 27.568 21.4241 27.944Z" fill="white" stroke="white" stroke-width="0.75"/>
<path d="M29.6272 19.7467C29.6272 20.1227 29.3224 20.4275 28.9464 20.4275C28.5704 20.4275 28.2656 20.1227 28.2656 19.7467C28.2656 19.3707 28.5704 19.0659 28.9464 19.0659C29.3224 19.0659 29.6272 19.3707 29.6272 19.7467Z" fill="white" stroke="white" stroke-width="0.75"/>
<path d="M13.2366 19.7467C13.2366 20.1227 12.9318 20.4275 12.5558 20.4275C12.1798 20.4275 11.875 20.1227 11.875 19.7467C11.875 19.3707 12.1798 19.0659 12.5558 19.0659C12.9318 19.0659 13.2366 19.3707 13.2366 19.7467Z" fill="white" stroke="white" stroke-width="0.75"/>
<path d="M15.635 13.9567C15.635 14.3327 15.3302 14.6375 14.9542 14.6375C14.5782 14.6375 14.2734 14.3327 14.2734 13.9567C14.2734 13.5807 14.5782 13.2759 14.9542 13.2759C15.3302 13.2759 15.635 13.5807 15.635 13.9567Z" fill="white" stroke="white" stroke-width="0.75"/>
<path d="M27.221 25.5436C27.221 25.9196 26.9162 26.2244 26.5402 26.2244C26.1642 26.2244 25.8594 25.9196 25.8594 25.5436C25.8594 25.1676 26.1642 24.8628 26.5402 24.8628C26.9162 24.8628 27.221 25.1676 27.221 25.5436Z" fill="white" stroke="white" stroke-width="0.75"/>
<path d="M27.221 13.9567C27.221 14.3327 26.9162 14.6375 26.5402 14.6375C26.1642 14.6375 25.8594 14.3327 25.8594 13.9567C25.8594 13.5807 26.1642 13.2759 26.5402 13.2759C26.9162 13.2759 27.221 13.5807 27.221 13.9567Z" fill="white" stroke="white" stroke-width="0.75"/>
<path d="M15.635 25.5436C15.635 25.9196 15.3302 26.2244 14.9542 26.2244C14.5782 26.2244 14.2734 25.9196 14.2734 25.5436C14.2734 25.1676 14.5782 24.8628 14.9542 24.8628C15.3302 24.8628 15.635 25.1676 15.635 25.5436Z" fill="white" stroke="white" stroke-width="0.75"/>
<defs>
<filter id="filter0_d_2863_21926" x="0" y="0" width="77" height="42" filterUnits="userSpaceOnUse" color-interpolation-filters="sRGB">
<feFlood flood-opacity="0" result="BackgroundImageFix"/>
<feColorMatrix in="SourceAlpha" type="matrix" values="0 0 0 0 0 0 0 0 0 0 0 0 0 0 0 0 0 0 127 0" result="hardAlpha"/>
<feOffset dx="2" dy="2"/>
<feComposite in2="hardAlpha" operator="out"/>
<feColorMatrix type="matrix" values="0 0 0 0 0.101961 0 0 0 0 0.101961 0 0 0 0 0.101961 0 0 0 1 0"/>
<feBlend mode="normal" in2="BackgroundImageFix" result="effect1_dropShadow_2863_21926"/>
<feBlend mode="normal" in="SourceGraphic" in2="effect1_dropShadow_2863_21926" result="shape"/>
</filter>
</defs>
</svg>
