<svg width="100%" height="100%" xmlns="http://www.w3.org/2000/svg" version="1.1"
  viewBox="0 0 595.3 514.8">
  <path fill="currentColor"
    d="M249.2,514.7c-40.3,0-76.2-5.5-107.6-16.3-31.5-10.9-58.2-26.7-80.2-47.3-22-20.6-37.9-45.3-47.5-74.1-4.6-12.9-8.1-26.8-10.4-41.4-2.3-14.6-3.4-29.3-3.4-44.2s.5-24.7,1.4-36.5c.9-11.8,2.8-23.3,5.6-34.4,2.8-11.1,6-22,9.7-32.7,14.4-39.9,37-73.8,68.1-101.9,31-28,68.2-49.4,111.8-64C240,7.3,286.7,0,336.7,0s108.3,8.6,148.6,25.8c40.3,17.2,70.8,39.6,91.6,67.5,3.9,5.1,7.4,10.4,10.6,15.7,19.7,33-4.5,74.9-42.9,74.8h-1.5c-18.8,0-35.6-11.1-44.3-27.8-3.6-6.9-8.3-13.8-14.3-20.7-13.9-16-33.3-28.8-58.3-38.3-25-9.5-55.5-14.2-91.6-14.2s-66,4.9-95.1,14.6c-29.2,9.8-54.2,24.1-75,43.1-20.8,19-36.1,42.2-45.8,69.5-2.8,7.4-5.1,15.4-6.9,24-1.9,8.6-3.4,16.9-4.5,25-1.2,8.1-1.9,17.3-2.4,27.5,0,10.2.9,20.8,2.8,31.6,1.8,10.9,4.9,21,9,30.2,6.5,18.5,16.9,34.4,31.2,47.6,14.4,13.2,32.4,23.3,54.2,30.2,21.8,7,47.2,10.4,76.4,10.4s61.2-4.4,87.9-13.2c26.6-8.8,48.6-22.1,66-40,17.3-17.8,29-39,35.1-63.6h-139.6c-23.8,0-41.8-21.6-37.6-45.1,3.3-18.2,19.1-31.4,37.6-31.4h229.3c24,0,42.1,22,37.5,45.7l-35.6,180.8c-3.5,18-19.2,30.8-37.5,30.8h-26.9c-27,0-45.5-27.3-35.5-52.4l24.9-62.3h-10.4c-13.9,28.8-31.4,52.5-52.4,71.3-21,18.8-45.4,33-72.9,42.8-27.5,9.8-60.5,14.6-99,14.6h-.2Z" />
</svg>