<svg width="100%" height="100%" xmlns="http://www.w3.org/2000/svg" viewBox="280 140 1400 850">
  <path fill="currentColor" d="M960,209.27c-206.68,0-374.83,168.16-374.83,374.83,0,12.17,9.86,22.03,22.03,22.03s22.03-9.86,22.03-22.03c0-182.38,148.36-330.73,330.73-330.73s330.73,148.36,330.73,330.73c0,12.17,9.86,22.03,22.03,22.03h.07c12.17,0,22.03-9.86,22.03-22.03,0-206.68-168.16-374.83-374.83-374.83Z"/>
  <path fill="currentColor" d="M822.8,517.9c-87.8,0-159.23,79.13-159.23,176.4s71.42,176.4,159.23,176.4v-.04c12.17,0,22.03-9.86,22.03-22.03v-308.7c0-12.17-9.86-22.03-22.03-22.03ZM800.77,824.15c-52.99-11.84-93.1-65.56-93.1-129.85s40.1-118.01,93.1-129.85v259.7Z"/>
  <path fill="currentColor" d="M1097.3,517.93c-12.17,0-22.03,9.86-22.03,22.03v308.7c0,12.17,9.86,22.03,22.03,22.03v.04c87.84,0,159.26-79.13,159.26-176.4s-71.46-176.4-159.26-176.4ZM1119.34,824.18v-259.74.04c52.99,11.84,93.1,65.56,93.1,129.85s-40.1,118.01-93.1,129.85Z"/>
</svg>
