<svg width="100%" height="100%" viewBox="0 0 306 44" fill="none">
  <path d="M122.587 24.4295C117.135 24.4295 113.326 28.4085 113.326 34.1036C113.326 39.7998 117.135 43.7776 122.587 43.7776C128.038 43.7776 131.848 39.7986 131.848 34.1036C131.848 28.4074 128.038 24.4295 122.587 24.4295ZM129.188 34.1036C129.188 38.4108 126.472 41.4171 122.587 41.4171C118.703 41.4171 115.986 38.4108 115.986 34.1036C115.986 29.7963 118.703 26.7901 122.587 26.7901C126.478 26.7901 129.188 29.7963 129.188 34.1036ZM136.918 24.7149H134.396V43.4922H145.756V41.1317H136.918V24.7149ZM150.302 32.9203V24.7149H147.785V43.4922H150.302V35.4545L158.969 43.4554L159.013 43.4922H162.129V43.1509L152.3 34.1285L162.142 25.0871L162.186 25.0491V24.7149H159.182L150.302 32.9203ZM166.738 35.0514H175.013V32.7526H166.738V27.0695H176.405V24.7149H164.221V43.4922H176.774V41.1317H166.738V35.0514ZM190.162 33.8003C191.699 33.063 192.467 31.6931 192.442 29.7285C192.411 26.4499 190.213 24.7149 186.079 24.7149H179.435V43.4922H186.11C190.763 43.4922 193.123 41.6894 193.123 38.1385C193.123 35.9266 192.124 34.4698 190.162 33.8003ZM181.951 32.7836V27.0695H186.023C188.683 27.0695 189.869 27.8877 189.869 29.7285C189.869 31.6681 188.539 32.7836 186.222 32.7836H181.951ZM181.951 35.1382H186.11C189.12 35.1382 190.462 36.0622 190.462 38.1314C190.462 40.2077 189.12 41.1317 186.11 41.1317H181.951V35.1382ZM198.724 24.7149H196.208V43.4922H198.724V24.7149ZM213.332 33.8003C214.868 33.063 215.635 31.6931 215.61 29.7285C215.579 26.4499 213.382 24.7149 209.247 24.7149H202.603V43.4922H209.278C213.931 43.4922 216.291 41.6894 216.291 38.1385C216.291 35.9266 215.298 34.4698 213.332 33.8003ZM205.12 41.1317V35.1382H209.278C212.288 35.1382 213.631 36.0622 213.631 38.1314C213.631 40.2077 212.288 41.1317 209.278 41.1317H205.12ZM205.12 27.0695H209.191C211.852 27.0695 213.032 27.8877 213.032 29.7285C213.032 31.6681 211.701 32.7836 209.385 32.7836H205.112V27.0695H205.12ZM221.868 24.7149H219.345V43.4922H230.705V41.1317H221.868V24.7149ZM235.251 24.7149H232.734V43.4922H235.251V24.7149ZM247.484 24.4295C242.033 24.4295 238.223 28.4085 238.223 34.1036C238.223 39.7998 242.033 43.7776 247.484 43.7776C252.936 43.7776 256.746 39.7986 256.746 34.1036C256.746 28.4074 252.942 24.4295 247.484 24.4295ZM254.086 34.1036C254.086 38.4108 251.368 41.4171 247.484 41.4171C243.6 41.4171 240.884 38.4108 240.884 34.1036C240.884 29.7963 243.6 26.7901 247.484 26.7901C251.368 26.7901 254.086 29.7963 254.086 34.1036ZM257.315 27.0695H264.221V43.4922H266.738V27.0695H273.645V24.7149H257.315V27.0695ZM278.135 35.0514H286.41V32.7526H278.135V27.0695H287.802V24.7149H275.618V43.4922H288.171V41.1317H278.135V35.0514ZM302.221 24.7149L293.347 32.9203V24.7149H290.825V43.4922H293.347V35.4545L302.015 43.4554L302.053 43.4922H305.169V43.1509L295.339 34.1285L305.182 25.0871L305.224 25.0491V24.7149H302.221ZM100.393 43.4922H102.91V34.9408H110.953V32.6159H102.91V27.0695H112.065V24.7149H100.394L100.393 43.4922ZM116.011 9.56941C116.011 3.58778 112.632 0.291351 106.494 0.291351H100.386V19.0686H106.494C112.545 19.0686 116.011 15.6045 116.011 9.56941ZM102.909 2.64714H106.412C111.021 2.64714 113.356 4.97795 113.356 9.56822C113.356 14.2417 110.958 16.7081 106.412 16.7081H102.909V2.64714ZM131.186 16.7081H121.151V10.6349H129.425V8.32908H121.151V2.65308H130.819V0.291351H118.634V19.0686H131.186V16.7081ZM139.636 19.0698H142.152V2.64714H149.059V0.292541H132.729V2.64714H139.636V19.0698ZM172.097 9.56941C172.097 3.58778 168.719 0.291351 162.58 0.291351H156.472V19.0686H162.58C168.625 19.0686 172.097 15.6045 172.097 9.56941ZM169.436 9.56941C169.436 14.2417 167.038 16.7081 162.492 16.7081H158.988V2.64714H162.492C167.101 2.64714 169.436 4.97795 169.436 9.56822V9.56941ZM177.616 0.291351H175.1V19.0686H177.616V0.291351ZM197.401 19.0698V9.51946H189.026V11.7932H195.003C194.328 16.4845 190.918 16.9935 189.47 16.9935C185.835 16.9935 183.293 13.9872 183.293 9.68C183.293 5.37395 185.903 2.36768 189.638 2.36768C192.761 2.36768 194.378 4.39405 195.066 5.59632L195.14 5.72L197.357 4.24541L197.288 4.13362C196.152 2.24995 193.903 0 189.638 0C184.337 0 180.632 3.97903 180.632 9.67405C180.632 15.4559 184.092 19.3481 189.238 19.3481C191.673 19.3481 193.76 18.3754 195.158 16.6023V19.0698H197.401ZM203.727 0.291351H201.21V19.0686H203.727V0.291351ZM222.48 0.291351H206.143V2.64595H213.051V19.0686H215.573V2.64714H222.48V0.291351ZM230.748 0.378162L230.717 0.291351H227.232L220.038 18.8831L219.969 19.0698H222.68L225.04 12.9455H232.928L235.257 19.0698H237.961L230.748 0.378162ZM232.046 10.6468H225.902L228.975 2.61622L232.046 10.6468ZM251.225 16.7081H242.383V0.291351H239.866V19.0686H251.225V16.7081ZM265.807 16.7081H255.772V10.6349H264.046V8.32908H255.772V2.65308H265.438V0.291351H253.255V19.0686H265.807V16.7081ZM33.9719 42.3518C33.9719 41.9617 34.0087 41.5836 34.0585 41.2113H0V43.4982H33.9719V42.3518ZM35.1331 38.1385L3.66607 25.2049L2.78484 27.3121L34.253 40.2457C34.4535 39.4953 34.7464 38.789 35.1331 38.1385ZM37.3118 35.703L13.2256 11.8003L11.596 13.4176L35.6822 37.3203C36.1507 36.7127 36.6998 36.1668 37.3118 35.703ZM40.2603 34.2831L27.2281 3.05503L25.105 3.92908L38.1373 35.1572C38.8019 34.77 39.5162 34.476 40.2603 34.2831ZM42.3834 34.0049C42.7771 34.0049 43.1579 34.0405 43.5338 34.0917V0.291351H41.2282V34.0917C41.6089 34.0417 41.9908 34.0049 42.3834 34.0049ZM46.6294 35.1572L59.6629 3.92908L57.5399 3.05622L44.5052 34.2843C45.2497 34.4766 45.9644 34.7703 46.6294 35.1572ZM49.0774 37.3203L73.166 13.4176L71.5364 11.8003L47.449 35.703C48.0681 36.1668 48.6172 36.7127 49.0798 37.3203H49.0774ZM50.509 40.2457L81.9772 27.3121L81.0959 25.2049L49.6277 38.1385C50.0156 38.789 50.3156 39.4942 50.509 40.2457ZM50.7023 41.2113C50.7521 41.5836 50.7889 41.9677 50.7889 42.353V43.4922H84.762V41.2066H50.7023V41.2113Z" fill="currentColor"/>
</svg>
