
<svg width="100%" height="100%" xmlns="http://www.w3.org/2000/svg" viewBox="0 0 595.3 841.9">
  <path fill="currentColor" class="st0" d="M450.8,739.8H144.5c-39.4,0-61.2,0-81.6-10.4-18.1-9.2-32.6-23.7-41.8-41.8-10.4-20.5-10.4-42.2-10.4-81.7v-178.6c0-39.5,0-61.3,10.4-81.7,9.2-18.1,23.7-32.6,41.8-41.8,20.5-10.4,42.2-10.4,81.7-10.4h25.5v-63.8c0-70.3,57.2-127.6,127.6-127.6s127.6,57.2,127.6,127.6v63.8h25.5c39.5,0,61.2,0,81.7,10.4,18.1,9.2,32.6,23.7,41.8,41.8,10.4,20.5,10.4,42.2,10.4,81.6v178.8c0,39.4,0,61.1-10.4,81.6-9.2,18.1-23.7,32.6-41.8,41.8-20.4,10.4-42.2,10.4-81.6,10.4ZM144.6,357.2c-27.7,0-45.9,0-52.8,3.5-6,3.1-10.9,7.9-13.9,13.9-3.5,6.8-3.5,25.1-3.5,52.8v178.6c0,27.7,0,45.9,3.5,52.7,3.1,6.1,7.9,10.9,13.9,13.9,6.8,3.5,25,3.5,52.7,3.5h306.3c27.6,0,45.8,0,52.6-3.5,6-3,10.9-8,14-13.9,3.5-6.8,3.5-25,3.5-52.6v-178.8c0-27.6,0-45.8-3.5-52.7-3-5.9-8-10.9-14-13.9-6.8-3.5-25.1-3.5-52.7-3.5H144.6ZM233.9,293.4h127.6v-63.8c0-35.2-28.6-63.8-63.8-63.8s-63.8,28.6-63.8,63.8v63.8Z"/>
</svg>
