<svg width="300px" height="auto" viewBox="0 0 86 43" fill="none" xmlns="http://www.w3.org/2000/svg">
  <rect x="1" y="0.5" width="84" height="41.5" rx="20.75" stroke="currentColor" />
  <path
    d="M23.8112 31.8722C22.1729 31.8722 20.7116 31.6511 19.4326 31.2116C18.151 30.7721 17.0649 30.1326 16.1691 29.2983C15.2732 28.4641 14.6285 27.464 14.2347 26.3008C14.0471 25.7771 13.9044 25.2165 13.8119 24.627C13.7168 24.0348 13.6719 23.4401 13.6719 22.84C13.6719 22.3347 13.6904 21.84 13.7274 21.3636C13.7644 20.8846 13.841 20.4214 13.9546 19.9714C14.0683 19.5214 14.2004 19.0819 14.351 18.6477C14.935 17.0344 15.8572 15.6606 17.1204 14.5263C18.3809 13.3921 19.8977 12.5288 21.6682 11.9367C23.4386 11.3446 25.3413 11.0498 27.376 11.0498C29.7675 11.0498 31.7837 11.3972 33.4221 12.092C35.0605 12.7868 36.3051 13.6947 37.1507 14.8211C37.3092 15.029 37.4519 15.2422 37.5814 15.458C38.3821 16.7949 37.3991 18.4897 35.8374 18.4845C35.8162 18.4845 35.7977 18.4845 35.7766 18.4845C35.0103 18.4819 34.3285 18.0371 33.9744 17.3607C33.829 17.0818 33.6361 16.8028 33.393 16.5238C32.8275 15.8764 32.0374 15.3606 31.02 14.9764C30.0027 14.5921 28.7607 14.4 27.2914 14.4C25.8222 14.4 24.6066 14.5974 23.4201 14.9922C22.2337 15.3869 21.2163 15.9685 20.368 16.737C19.5198 17.5055 18.8988 18.445 18.5024 19.5503C18.3888 19.8504 18.2936 20.1741 18.2197 20.5215C18.143 20.8688 18.0822 21.2057 18.0373 21.5347C17.9898 21.8636 17.958 22.2347 17.9396 22.6453C17.9396 23.0585 17.9765 23.4848 18.0532 23.9243C18.1272 24.3664 18.2514 24.7744 18.4205 25.1481C18.6847 25.8981 19.1075 26.5403 19.6915 27.0745C20.2755 27.6087 21.0102 28.0167 21.8954 28.2983C22.7807 28.5799 23.8165 28.7193 25.003 28.7193C26.3031 28.7193 27.4949 28.5404 28.5784 28.1851C29.6618 27.8298 30.555 27.2903 31.2632 26.5666C31.9687 25.8455 32.4444 24.9875 32.6901 23.9927H27.0087C26.0389 23.9927 25.3069 23.119 25.4787 22.1689C25.6134 21.432 26.2556 20.8978 27.0087 20.8978H36.3421C37.3198 20.8978 38.0571 21.7873 37.8668 22.7453L36.4187 30.0615C36.276 30.7879 35.6365 31.309 34.894 31.309H33.8C32.7007 31.309 31.9476 30.2036 32.3572 29.1878L33.3692 26.6666H32.9464C32.3809 27.8298 31.6701 28.7904 30.8139 29.551C29.9577 30.3116 28.9668 30.8879 27.8464 31.2827C26.7259 31.6774 25.3835 31.8748 23.8192 31.8748L23.8112 31.8722Z"
    fill="currentColor" />
  <path
    d="M51.3895 31.8748C49.4443 31.8748 47.7191 31.63 46.2191 31.1431C44.7164 30.6562 43.447 29.956 42.4081 29.0453C41.3692 28.1346 40.6325 27.016 40.1979 25.6815C39.9514 25.1762 39.7924 24.6603 39.7155 24.1339C39.6387 23.6101 39.6016 23.0547 39.6016 22.473C39.6016 22.0598 39.6201 21.6281 39.6572 21.178C39.6943 20.728 39.7712 20.3016 39.8851 19.8988C39.9991 19.4961 40.1395 19.0592 40.3092 18.5907C40.818 16.922 41.7111 15.5375 42.9858 14.4399C44.2606 13.3423 45.7632 12.5027 47.4911 11.921C49.2191 11.3393 51.1325 11.0498 53.2288 11.0498C55.1369 11.0498 56.8595 11.2841 58.3993 11.7526C59.939 12.2211 61.2244 12.916 62.2526 13.8345C63.2809 14.7531 64.015 15.8797 64.4496 17.2115C64.6775 17.7169 64.8418 18.2354 64.9452 18.7592C65.0486 19.2856 65.1016 19.8462 65.1016 20.449C65.1016 20.8806 65.0698 21.3123 65.0035 21.7439C64.9373 22.1756 64.8525 22.6073 64.7491 23.0389C64.6457 23.4706 64.5079 23.8917 64.3383 24.305C63.8083 25.9553 62.9178 27.345 61.6616 28.4689C60.4055 29.5954 58.8948 30.443 57.1272 31.0168C55.3595 31.5879 53.4487 31.8748 51.3895 31.8748ZM51.5883 28.5268C52.9108 28.5268 54.1563 28.3347 55.3277 27.9504C56.4991 27.5661 57.5035 26.9976 58.3463 26.2474C59.1864 25.4973 59.8065 24.5603 60.2014 23.4337C60.2968 23.1337 60.3869 22.8389 60.4717 22.5467C60.5565 22.2572 60.6228 21.9466 60.6705 21.6176C60.7182 21.2886 60.742 20.9569 60.742 20.6174C60.742 20.2226 60.6943 19.8199 60.6016 19.4067C60.5062 18.9934 60.3948 18.6276 60.2623 18.3091C59.9788 17.4642 59.5017 16.7562 58.8312 16.185C58.1608 15.6138 57.3445 15.1716 56.3798 14.8611C55.4178 14.5505 54.3021 14.3978 53.0353 14.3978C51.6758 14.3978 50.4143 14.5952 49.2535 14.99C48.0927 15.3848 47.091 15.956 46.2509 16.7061C45.4107 17.4563 44.7906 18.3959 44.3957 19.5198C44.3401 19.8015 44.2685 20.0884 44.1837 20.3779C44.0989 20.67 44.0327 20.978 43.985 21.307C43.9373 21.636 43.9134 21.9598 43.9134 22.2782C43.9134 22.6546 43.9558 23.0521 44.0406 23.4732C44.1254 23.8943 44.2261 24.2655 44.3374 24.584C44.6395 25.4104 45.1166 26.1316 45.7685 26.7501C46.4205 27.3687 47.242 27.8188 48.2332 28.1004C49.2244 28.382 50.3454 28.5215 51.591 28.5215L51.5883 28.5268Z"
    fill="currentColor" />
  <path
    d="M66.4041 22.6132L67.9645 13.2385C68.1326 12.2214 69.0047 11.4751 70.0266 11.4751H71.0826C72.488 11.4751 73.4941 12.8508 73.0817 14.2078L70.4653 23.5826C70.1947 24.4696 69.3856 25.0751 68.4662 25.0751C67.1737 25.0751 66.1913 23.9013 66.4041 22.6106V22.6132Z"
    fill="currentColor" />
  <path
    d="M67.0094 31.8752C68.3003 31.8752 69.3469 30.8287 69.3469 29.5377C69.3469 28.2467 68.3003 27.2002 67.0094 27.2002C65.7184 27.2002 64.6719 28.2467 64.6719 29.5377C64.6719 30.8287 65.7184 31.8752 67.0094 31.8752Z"
    fill="currentColor" />
</svg>
