<svg width="100%" height="100%" viewBox="0 0 32 32" fill="currentColor" xmlns="http://www.w3.org/2000/svg">
  <path d="M17.926 17.2295C18.3326 16.8441 18.6143 16.3456 18.7346 15.7985C18.855 15.2513 18.8084 14.6807 18.601 14.1603C18.3936 13.6398 18.0349 13.1936 17.5712 12.8792C17.1075 12.5649 16.5602 12.3968 16 12.3968C15.4398 12.3968 14.8925 12.5649 14.4288 12.8792C13.9651 13.1936 13.6064 13.6398 13.399 14.1603C13.1916 14.6807 13.145 15.2513 13.2654 15.7985C13.3857 16.3456 13.6674 16.8441 14.074 17.2295C13.5765 17.314 13.1289 17.5824 12.82 17.9815C12.6334 18.2191 12.504 18.4966 12.4419 18.7923C12.3799 19.088 12.3867 19.394 12.462 19.6866L13.68 24.4869C13.7922 24.9218 14.0463 25.3067 14.4021 25.5808C14.7579 25.8549 15.1949 26.0024 15.644 26H16.356C16.8051 26.0024 17.2421 25.8549 17.5979 25.5808C17.9537 25.3067 18.2078 24.9218 18.32 24.4869L19.538 19.6866C19.6133 19.394 19.6201 19.088 19.5581 18.7923C19.496 18.4966 19.3666 18.2191 19.18 17.9815C18.8711 17.5824 18.4235 17.314 17.926 17.2295ZM14 15.1994C14 14.8038 14.1173 14.4171 14.3371 14.0881C14.5568 13.7592 14.8692 13.5029 15.2346 13.3515C15.6001 13.2001 16.0022 13.1605 16.3902 13.2377C16.7781 13.3148 17.1345 13.5053 17.4142 13.7851C17.6939 14.0648 17.8844 14.4212 17.9616 14.8091C18.0387 15.1971 17.9991 15.5993 17.8478 15.9648C17.6964 16.3302 17.44 16.6426 17.1111 16.8624C16.7822 17.0822 16.3956 17.1995 16 17.1995C15.4696 17.1995 14.9609 16.9887 14.5858 16.6136C14.2107 16.2386 14 15.7298 14 15.1994ZM18.763 19.4896L17.545 24.2899C17.4763 24.5522 17.322 24.7841 17.1067 24.949C16.8913 25.1138 16.6272 25.2021 16.356 25.1999H15.644C15.3728 25.2021 15.1087 25.1138 14.8933 24.949C14.678 24.7841 14.5237 24.5522 14.455 24.2899L13.237 19.4896C13.1924 19.315 13.1885 19.1325 13.2256 18.9561C13.2627 18.7798 13.3398 18.6143 13.451 18.4725C13.5662 18.3243 13.714 18.2045 13.8829 18.1225C14.0517 18.0404 14.2372 17.9984 14.425 17.9995H17.575C17.7628 17.9984 17.9483 18.0404 18.1171 18.1225C18.286 18.2045 18.4338 18.3243 18.549 18.4725C18.6602 18.6143 18.7373 18.7798 18.7744 18.9561C18.8115 19.1325 18.8076 19.315 18.763 19.4896ZM22 15.9994C21.9993 15.1431 21.8154 14.297 21.4606 13.5177C21.1058 12.7384 20.5883 12.0441 19.943 11.4814C19.2976 10.9187 18.5393 10.5007 17.719 10.2553C16.8987 10.01 16.0354 9.94313 15.1871 10.0591C14.3388 10.1751 13.5251 10.4714 12.8008 10.9279C12.0765 11.3845 11.4582 11.9908 10.9876 12.7061C10.517 13.4214 10.2049 14.2291 10.0724 15.0751C9.93979 15.921 9.98979 16.7855 10.219 17.6105C10.2474 17.7127 10.234 17.8221 10.1818 17.9144C10.1295 18.0068 10.0427 18.0746 9.9405 18.103C9.83826 18.1314 9.72893 18.118 9.63657 18.0658C9.54421 18.0135 9.47638 17.9267 9.448 17.8245C9.16621 16.8141 9.12195 15.7522 9.31871 14.7219C9.51546 13.6916 9.94788 12.7207 10.5822 11.8853C11.2164 11.0498 12.0354 10.3725 12.9749 9.90612C13.9144 9.43978 14.9491 9.19712 15.998 9.19712C17.0469 9.19712 18.0816 9.43978 19.0211 9.90612C19.9606 10.3725 20.7796 11.0498 21.4138 11.8853C22.0481 12.7207 22.4805 13.6916 22.6773 14.7219C22.874 15.7522 22.8298 16.8141 22.548 17.8245C22.5246 17.9087 22.4743 17.9829 22.4048 18.0358C22.3353 18.0887 22.2504 18.1174 22.163 18.1175C22.1269 18.1177 22.0909 18.113 22.056 18.1035C22.0053 18.0895 21.9578 18.0657 21.9163 18.0333C21.8748 18.0009 21.8401 17.9607 21.8142 17.9149C21.7883 17.8691 21.7716 17.8186 21.7653 17.7664C21.7589 17.7142 21.7629 17.6612 21.777 17.6105C21.9239 17.086 21.9989 16.544 22 15.9994ZM26 15.9994C26.0009 17.6435 25.5962 19.2623 24.8217 20.7125C24.0472 22.1627 22.9268 23.3994 21.56 24.3129C21.4719 24.3699 21.365 24.39 21.2622 24.3689C21.1595 24.3478 21.0691 24.2872 21.0106 24.2001C20.9522 24.113 20.9302 24.0064 20.9495 23.9033C20.9689 23.8002 21.0279 23.7088 21.114 23.6488C22.7545 22.5518 23.9987 20.9563 24.663 19.0979C25.3274 17.2396 25.3766 15.2168 24.8034 13.3284C24.2302 11.4399 23.065 9.78579 21.4798 8.61029C19.8946 7.43479 17.9734 6.80019 16 6.80019C14.0266 6.80019 12.1054 7.43479 10.5202 8.61029C8.93504 9.78579 7.76983 11.4399 7.19663 13.3284C6.62343 15.2168 6.67263 17.2396 7.33696 19.0979C8.00129 20.9563 9.24554 22.5518 10.886 23.6488C10.9721 23.7088 11.0311 23.8002 11.0505 23.9033C11.0698 24.0064 11.0478 24.113 10.9894 24.2001C10.9309 24.2872 10.8405 24.3478 10.7378 24.3689C10.635 24.39 10.5281 24.3699 10.44 24.3129C9.00425 23.3524 7.84176 22.0364 7.06579 20.493C6.28983 18.9497 5.92685 17.2316 6.01222 15.5063C6.0976 13.7809 6.62842 12.1071 7.55296 10.6479C8.4775 9.18874 9.76424 7.99393 11.2878 7.17991C12.8114 6.3659 14.5198 5.96044 16.2466 6.00304C17.9735 6.04564 19.6598 6.53486 21.1414 7.42301C22.6229 8.31116 23.8492 9.56797 24.7007 11.071C25.5521 12.574 25.9998 14.2719 26 15.9994Z" fill="currentColor"/>
  <path d="M17.926 17.2295C18.3326 16.8441 18.6143 16.3456 18.7346 15.7985C18.855 15.2513 18.8084 14.6807 18.601 14.1603C18.3936 13.6398 18.0349 13.1936 17.5712 12.8792C17.1075 12.5649 16.5602 12.3968 16 12.3968C15.4398 12.3968 14.8925 12.5649 14.4288 12.8792C13.9651 13.1936 13.6064 13.6398 13.399 14.1603C13.1916 14.6807 13.145 15.2513 13.2654 15.7985C13.3857 16.3456 13.6674 16.8441 14.074 17.2295C13.5765 17.314 13.1289 17.5824 12.82 17.9815C12.6334 18.2191 12.504 18.4966 12.4419 18.7923C12.3799 19.088 12.3867 19.394 12.462 19.6866L13.68 24.4869C13.7922 24.9218 14.0463 25.3067 14.4021 25.5808C14.7579 25.8549 15.1949 26.0024 15.644 26H16.356C16.8051 26.0024 17.2421 25.8549 17.5979 25.5808C17.9537 25.3067 18.2078 24.9218 18.32 24.4869L19.538 19.6866C19.6133 19.394 19.6201 19.088 19.5581 18.7923C19.496 18.4966 19.3666 18.2191 19.18 17.9815C18.8711 17.5824 18.4235 17.314 17.926 17.2295ZM14 15.1994C14 14.8038 14.1173 14.4171 14.3371 14.0881C14.5568 13.7592 14.8692 13.5029 15.2346 13.3515C15.6001 13.2001 16.0022 13.1605 16.3902 13.2377C16.7781 13.3148 17.1345 13.5053 17.4142 13.7851C17.6939 14.0648 17.8844 14.4212 17.9616 14.8091C18.0387 15.1971 17.9991 15.5993 17.8478 15.9648C17.6964 16.3302 17.44 16.6426 17.1111 16.8624C16.7822 17.0822 16.3956 17.1995 16 17.1995C15.4696 17.1995 14.9609 16.9887 14.5858 16.6136C14.2107 16.2386 14 15.7298 14 15.1994ZM18.763 19.4896L17.545 24.2899C17.4763 24.5522 17.322 24.7841 17.1067 24.949C16.8913 25.1138 16.6272 25.2021 16.356 25.1999H15.644C15.3728 25.2021 15.1087 25.1138 14.8933 24.949C14.678 24.7841 14.5237 24.5522 14.455 24.2899L13.237 19.4896C13.1924 19.315 13.1885 19.1325 13.2256 18.9561C13.2627 18.7798 13.3398 18.6143 13.451 18.4725C13.5662 18.3243 13.714 18.2045 13.8829 18.1225C14.0517 18.0404 14.2372 17.9984 14.425 17.9995H17.575C17.7628 17.9984 17.9483 18.0404 18.1171 18.1225C18.286 18.2045 18.4338 18.3243 18.549 18.4725C18.6602 18.6143 18.7373 18.7798 18.7744 18.9561C18.8115 19.1325 18.8076 19.315 18.763 19.4896ZM22 15.9994C21.9993 15.1431 21.8154 14.297 21.4606 13.5177C21.1058 12.7384 20.5883 12.0441 19.943 11.4814C19.2976 10.9187 18.5393 10.5007 17.719 10.2553C16.8987 10.01 16.0354 9.94313 15.1871 10.0591C14.3388 10.1751 13.5251 10.4714 12.8008 10.9279C12.0765 11.3845 11.4582 11.9908 10.9876 12.7061C10.517 13.4214 10.2049 14.2291 10.0724 15.0751C9.93979 15.921 9.98979 16.7855 10.219 17.6105C10.2474 17.7127 10.234 17.8221 10.1818 17.9144C10.1295 18.0068 10.0427 18.0746 9.9405 18.103C9.83826 18.1314 9.72893 18.118 9.63657 18.0658C9.54421 18.0135 9.47638 17.9267 9.448 17.8245C9.16621 16.8141 9.12195 15.7522 9.31871 14.7219C9.51546 13.6916 9.94788 12.7207 10.5822 11.8853C11.2164 11.0498 12.0354 10.3725 12.9749 9.90612C13.9144 9.43978 14.9491 9.19712 15.998 9.19712C17.0469 9.19712 18.0816 9.43978 19.0211 9.90612C19.9606 10.3725 20.7796 11.0498 21.4138 11.8853C22.0481 12.7207 22.4805 13.6916 22.6773 14.7219C22.874 15.7522 22.8298 16.8141 22.548 17.8245C22.5246 17.9087 22.4743 17.9829 22.4048 18.0358C22.3353 18.0887 22.2504 18.1174 22.163 18.1175C22.1269 18.1177 22.0909 18.113 22.056 18.1035C22.0053 18.0895 21.9578 18.0657 21.9163 18.0333C21.8748 18.0009 21.8401 17.9607 21.8142 17.9149C21.7883 17.8691 21.7716 17.8186 21.7653 17.7664C21.7589 17.7142 21.7629 17.6612 21.777 17.6105C21.9239 17.086 21.9989 16.544 22 15.9994ZM26 15.9994C26.0009 17.6435 25.5962 19.2623 24.8217 20.7125C24.0472 22.1627 22.9268 23.3994 21.56 24.3129C21.4719 24.3699 21.365 24.39 21.2622 24.3689C21.1595 24.3478 21.0691 24.2872 21.0106 24.2001C20.9522 24.113 20.9302 24.0064 20.9495 23.9033C20.9689 23.8002 21.0279 23.7088 21.114 23.6488C22.7545 22.5518 23.9987 20.9563 24.663 19.0979C25.3274 17.2396 25.3766 15.2168 24.8034 13.3284C24.2302 11.4399 23.065 9.78579 21.4798 8.61029C19.8946 7.43479 17.9734 6.80019 16 6.80019C14.0266 6.80019 12.1054 7.43479 10.5202 8.61029C8.93504 9.78579 7.76983 11.4399 7.19663 13.3284C6.62343 15.2168 6.67263 17.2396 7.33696 19.0979C8.00129 20.9563 9.24554 22.5518 10.886 23.6488C10.9721 23.7088 11.0311 23.8002 11.0505 23.9033C11.0698 24.0064 11.0478 24.113 10.9894 24.2001C10.9309 24.2872 10.8405 24.3478 10.7378 24.3689C10.635 24.39 10.5281 24.3699 10.44 24.3129C9.00425 23.3524 7.84176 22.0364 7.06579 20.493C6.28983 18.9497 5.92685 17.2316 6.01222 15.5063C6.0976 13.7809 6.62842 12.1071 7.55296 10.6479C8.4775 9.18874 9.76424 7.99393 11.2878 7.17991C12.8114 6.3659 14.5198 5.96044 16.2466 6.00304C17.9735 6.04564 19.6598 6.53486 21.1414 7.42301C22.6229 8.31116 23.8492 9.56797 24.7007 11.071C25.5521 12.574 25.9998 14.2719 26 15.9994Z" stroke="currentColor" stroke-width="0.1" />
</svg>
