<svg width="24" height="24" viewBox="0 0 24 24" fill="none" xmlns="http://www.w3.org/2000/svg">
<path d="M16.9375 18.8438C16.9375 16.7175 14.3212 14.9937 11.0938 14.9937C7.86634 14.9937 5.25 16.7175 5.25 18.8438M11.0938 12.1062C8.94214 12.1062 7.19792 10.3825 7.19792 8.25625C7.19792 6.12995 8.94214 4.40625 11.0938 4.40625C13.2454 4.40625 14.9896 6.12995 14.9896 8.25625C14.9896 10.3825 13.2454 12.1062 11.0938 12.1062Z" stroke="#1A1A1A" stroke-width="1.125" stroke-linecap="round" stroke-linejoin="round"/>
<path d="M19 10.8574C18.3889 9.44184 16.25 9.59261 16.25 11.4018C16.25 13.211 19 14.7188 19 14.7188C19 14.7188 21.75 13.211 21.75 11.4018C21.75 9.59261 19.6111 9.44184 19 10.8574Z" fill="#1A1A1A"/>
</svg>
