<svg width="24" height="24" viewBox="0 0 24 24" fill="none" xmlns="http://www.w3.org/2000/svg">
<path d="M6.75 6.64085C7.05638 5.71684 7.61805 4.8939 8.37259 4.26277C9.12713 3.63163 10.045 3.21727 11.0252 3.06505C12.0055 2.91283 13.0104 3.029 13.9275 3.40056C14.8446 3.77212 15.6379 4.3848 16.2215 5.17062C16.805 5.95644 17.1554 6.88459 17.2334 7.85303C17.3114 8.82148 17.1136 9.792 16.6631 10.6576C16.2126 11.5232 15.527 12.2505 14.6808 12.7581C13.8345 13.2658 12.8613 13.5344 11.8687 13.5344V16.3507M11.9357 20.1181V20.2497L11.8017 20.25V20.1181H11.9357Z" stroke="#1A1A1A" stroke-width="1.125" stroke-linecap="round" stroke-linejoin="round"/>
</svg>
