<?xml version="1.0" encoding="UTF-8"?>
<svg id="Day" xmlns="http://www.w3.org/2000/svg" viewBox="0 0 77 42">
  <defs>
    <style>
      .cls-1 {
        fill: #1a1a1a;
      }
    </style>
  </defs>
  <path class="cls-1" d="M72.1,9.67c.04.06.07.13.11.19C68.73,3.97,62.33,0,55,0H20C8.97,0,0,8.97,0,20c0,7.33,3.97,13.73,9.86,17.21-.06-.04-.13-.07-.19-.11,3.36,2.75,7.65,4.4,12.33,4.4h35c10.77,0,19.5-8.73,19.5-19.5,0-4.68-1.65-8.97-4.4-12.33ZM1,20C1,9.52,9.52,1,20,1h35c10.48,0,19,8.52,19,19s-8.52,19-19,19H20C9.52,39,1,30.48,1,20Z"/>
  <circle class="cls-1" cx="20.75" cy="19.75" r="3.12"/>
  <path class="cls-1" d="M21,4c-8.84,0-16,7.16-16,16s7.16,16,16,16,16-7.16,16-16S29.84,4,21,4ZM20.75,10.5c.58,0,1.06.47,1.06,1.06s-.47,1.06-1.06,1.06-1.06-.47-1.06-1.06.47-1.06,1.06-1.06ZM12.56,20.8c-.58,0-1.06-.47-1.06-1.06s.47-1.06,1.06-1.06,1.06.47,1.06,1.06-.47,1.06-1.06,1.06ZM14.96,26.6c-.58,0-1.06-.47-1.06-1.06s.47-1.06,1.06-1.06,1.06.47,1.06,1.06-.47,1.06-1.06,1.06ZM14.96,15.01c-.58,0-1.06-.47-1.06-1.06s.47-1.06,1.06-1.06,1.06.47,1.06,1.06-.47,1.06-1.06,1.06ZM20.75,29c-.58,0-1.06-.47-1.06-1.06s.47-1.06,1.06-1.06,1.06.47,1.06,1.06-.47,1.06-1.06,1.06ZM20.75,24.38c-2.55,0-4.62-2.08-4.62-4.62s2.07-4.62,4.62-4.62,4.62,2.07,4.62,4.62-2.07,4.62-4.62,4.62ZM26.54,26.6c-.58,0-1.06-.47-1.06-1.06s.47-1.06,1.06-1.06,1.06.47,1.06,1.06-.47,1.06-1.06,1.06ZM26.54,15.01c-.58,0-1.06-.47-1.06-1.06s.47-1.06,1.06-1.06,1.06.47,1.06,1.06-.47,1.06-1.06,1.06ZM28.94,20.8c-.58,0-1.06-.47-1.06-1.06s.47-1.06,1.06-1.06,1.06.47,1.06,1.06-.47,1.06-1.06,1.06Z"/>
</svg>