<?xml version="1.0" encoding="UTF-8"?>
<svg id="Night" xmlns="http://www.w3.org/2000/svg" viewBox="0 0 77 42">
  <defs>
    <style>
      .cls-1 {
        fill: #fcfaf7;
      }
    </style>
  </defs>
  <path class="cls-1" d="M54,4c-8.84,0-16,7.16-16,16s7.16,16,16,16,16-7.16,16-16-7.16-16-16-16ZM53.2,26.73c-2.19.16-4.22-.55-5.77-1.81-.36-.3-.14-.89.33-.87.14,0,.29.01.43,0,4.48-.02,8.14-3.7,8.14-8.19,0-1.5-.4-2.91-1.1-4.12-.24-.41.18-.89.62-.7,3.06,1.34,5.15,4.51,4.88,8.13-.29,4.03-3.51,7.26-7.53,7.55Z"/>
  <path class="cls-1" d="M72.1,9.67c.04.06.07.13.11.19C68.73,3.97,62.33,0,55,0H20C8.97,0,0,8.97,0,20c0,7.33,3.97,13.73,9.86,17.21-.06-.04-.13-.07-.19-.11,3.36,2.75,7.65,4.4,12.33,4.4h35c10.77,0,19.5-8.73,19.5-19.5,0-4.68-1.65-8.97-4.4-12.33ZM1,20C1,9.52,9.52,1,20,1h35c10.48,0,19,8.52,19,19s-8.52,19-19,19H20C9.52,39,1,30.48,1,20Z"/>
</svg>