<svg xmlns="http://www.w3.org/2000/svg" width="100%" height="100%" viewBox="0 0 1268.3 1080">
  <path fill="currentColor" d="M985,208.5H283.3c-64.8,0-117.6,52.8-117.6,117.6v427.8c0,64.8,52.8,117.6,117.6,117.6h701.7c64.8,0,117.6-52.8,117.6-117.6v-427.8c0-64.8-52.8-117.6-117.6-117.6ZM1052,753.9c0,36.9-30.1,67-67,67H283.3c-36.9,0-67-30.1-67-67v-427.8c0-36.9,30.1-67,67-67h701.7c36.9,0,67,30.1,67,67v427.8Z"/>
  <path fill="currentColor" d="M765,503.5l-219.4-126.7c-28.2-16.3-63.4,4-63.4,36.6v253.3c0,32.5,35.2,52.9,63.4,36.6l219.4-126.7v.2c28.2-16.3,28.2-57,0-73.3Z"/>
</svg>
